<?xml version="1.0" encoding="UTF-8"?>
<svg id="Capa_2" data-name="Capa 2" xmlns="http://www.w3.org/2000/svg" viewBox="0 0 384.77 128.93">
  <defs>
    <style>
      .cls-1 {
        letter-spacing: 0em;
      }

      .cls-2 {
        letter-spacing: 0em;
      }

      .cls-3 {
        letter-spacing: 0em;
      }

      .cls-4, .cls-5 {
        fill: #f30;
      }

      .cls-6 {
        letter-spacing: 0em;
      }

      .cls-7 {
        letter-spacing: 0em;
      }

      .cls-8 {
        letter-spacing: 0em;
      }

      .cls-9 {
        letter-spacing: 0em;
      }

      .cls-5 {
        font-family: FONTSPRINGDEMO-BebasNeueProBoldItalic, 'FONTSPRING DEMO - Bebas Neue Pro';
        font-size: 30.76px;
        font-style: italic;
        font-weight: 700;
      }
    </style>
  </defs>
  <g id="Capa_1-2" data-name="Capa 1">
    <g>
      <g>
        <path class="cls-4" d="M74.36,42.64c-1.27-2.38-5.74-3.27-8.3-3.5-41.17-3.79-59.41,53.25-31.9,79.77C17.9,113.99,2.48,102.66,0,84.79c2.29,2.44,6.67,8.13,10.52,5.24,3.99-3-3.23-12.19-4.59-15.43-3.96-9.46-1.95-20.59,2.61-29.44l1.4,5.37c1.66,2.92,4.74,6.45,8.33,4.59s1.06-7.11.83-10.22c-.95-12.9,6.67-22.13,17.57-27.84-.92,2.94-3.48,13.24.78,14.05,5.16.98,9.86-7.97,10.94-12.14,1.79-6.97.39-13.13-3.67-18.96,15.23.74,26.3,9.18,30.92,23.56,1.08,3.36.27,9.22,5.91,7.94,4.25-.97,3.64-7.19,2.87-10.43.81-.18,1.03.28,1.52.73,7.64,7.09,10.91,20.47,8.02,30.37-4.71-4.84-12.74-9.39-19.6-9.53Z"/>
        <g>
          <path d="M93.96,52.18c-.67-3.43-6.14-6.3-9.32-7.81-2.7-1.28-7.96-3.7-10.27-1.73.49.91,1.58,4.04.2,4.48-2.86.91-2.69-4.25-4.72-5.23-1.72-.84-13.7.61-14.55,1.79-.45.63,1.59,4.24.98,5.49-2.36.52-4.84-2.37-6.82-2.5-3.19-.21-10.98,6.97-12.77,9.78.02,1.03,7.19,2.28,5.3,5.3-1.06,1.46-7.59-1.01-9.25.05-.6.38-3.35,6.86-3.73,8.07-.29.93-1.71,6.09-1.38,6.4,1.92.43,8.37-.07,8.08,2.76-.23,2.29-7.36,1.6-9.05,2.29-.77,5.17-.8,10.77,1.32,15.54,10.26-.02,10.95,3.49.66,5.01-.63.7,5.3,11.61,6.75,12.57,2.02,1.34,8.85-2.05,9.33.22.39,1.84-5.67,3.69-5.52,4,18.44,17.75,46.85,11.28,59.19-10.13,9.6-16.65,9.53-42.01-4.42-56.35ZM91.8,98.45c-13.91,30.76-53.18,13.28-46.36-18.7,2.13-10.01,11.09-21.47,21.76-22.92,22.91-3.12,32.94,23.17,24.6,41.62Z"/>
          <path d="M62.3,62.22c.47,2.25,3.03,9.86,2.28,11.52-.66,1.44-4.74,4.06-5.62,6l-8.2-2.97c-.49,1.29-3.4,10.54-1.26,10.54h7.79c-.44,1.36,2.04,5.18,1.95,5.7-.2,1.13-6.13,7.17-5.92,9.5,2.28,2.86,4.98,5.16,8.48,6.38.46-1.49,2.61-11.09,3.07-11.49.48-.42,4.4.45,5.47-.56l2.55,9.71c-.24,1.04-6.51,2.35-7.07,3.84h8.79c2.58,0,9.08-5.15,10.79-7.29,14.41-18.01,1.92-49.17-23.1-40.87ZM67.58,91.36c-6.52.02-6.02-10.3.12-11.49,5.61-1.09,8.04,11.47-.12,11.49ZM72.31,75.04c-1.73-2.38,1.2-7.57,1.04-10.32,1.35-1.3,11.88,8.99,9.99,11.98-.19.29-5.47,2.22-6.23,3.01-.69-2.05-3.97-3.53-4.8-4.67ZM82.34,97.02c-.26.56-1.5,3.15-2.2,2.82-.34-.16-4.63-5.47-4.7-5.84-.1-.5,1.41-3.16,1.71-4.17.21-.7.13-2.35.26-2.49.29-.31,6.74-.8,7-.54.34,3.53-.59,7.05-2.07,10.23Z"/>
        </g>
      </g>
      <g>
        <g>
          <g>
            <path d="M114.93,89.47c0-.88.11-1.82.33-2.86l4.46-20.82c1.16-5.4,4.46-8.48,9.47-8.48,5.73,0,8.59,2.81,8.59,7.44,0,.88-.11,1.93-.33,2.92l-.66,3.19h-5.84l.88-4.19c.11-.44.17-.88.17-1.27,0-1.76-1.16-2.59-2.92-2.59-1.6,0-2.75.99-3.25,3.25l-4.63,21.54c-.11.44-.17.88-.17,1.21,0,1.87,1.21,2.64,2.92,2.64,1.6,0,2.92-.94,3.36-3.14l1.21-6h5.78l-1.27,6.17c-1.16,5.56-4.41,8.48-9.42,8.48-5.78,0-8.7-2.81-8.7-7.49Z"/>
            <path d="M142.96,57.86h6.17l-3.36,15.7h6.39l3.36-15.7h6.17l-8.21,38.56h-6.17l3.69-17.35h-6.39l-3.69,17.35h-6.17l8.21-38.56Z"/>
            <path d="M166.21,57.86h6.17l-8.21,38.56h-6.17l8.21-38.56Z"/>
            <path d="M176.89,57.86h6.17l-7.05,33.05h9.86l-1.16,5.51h-16.03l8.21-38.56Z"/>
            <path d="M195.84,57.86h16.52l-1.21,5.51h-10.3l-2.15,10.19h8.15l-1.16,5.51h-8.15l-2.53,11.84h10.3l-1.16,5.51h-16.52l8.21-38.56Z"/>
          </g>
          <g>
            <path d="M208.56,89.47c0-.88.11-1.82.33-2.86l4.46-20.82c1.16-5.4,4.46-8.48,9.47-8.48,5.73,0,8.59,2.81,8.59,7.44,0,.88-.11,1.93-.33,2.92l-.66,3.19h-5.84l.88-4.19c.11-.44.17-.88.17-1.27,0-1.76-1.16-2.59-2.92-2.59-1.6,0-2.75.99-3.25,3.25l-4.63,21.54c-.11.44-.17.88-.17,1.21,0,1.87,1.21,2.64,2.92,2.64,1.6,0,2.92-.94,3.36-3.14l1.21-6h5.78l-1.27,6.17c-1.16,5.56-4.41,8.48-9.42,8.48-5.78,0-8.7-2.81-8.7-7.49Z"/>
            <path d="M236.6,57.86h6.17l-3.36,15.7h6.39l3.36-15.7h6.17l-8.21,38.56h-6.17l3.69-17.35h-6.39l-3.69,17.35h-6.17l8.21-38.56Z"/>
            <path d="M252.79,89.2c0-.88.11-1.82.33-2.81l4.35-20.38c1.21-5.67,4.63-8.7,9.69-8.7,5.34,0,8.92,2.64,8.92,7.77,0,.88-.11,1.87-.33,2.86l-4.35,20.38c-1.21,5.67-4.57,8.65-9.69,8.65s-8.92-2.64-8.92-7.77ZM265.3,88.04l4.46-21.1c.11-.5.17-.99.17-1.38,0-1.87-1.1-2.75-3.03-2.75-1.6,0-2.75.88-3.3,3.47l-4.46,21.1c-.11.5-.17.94-.17,1.32,0,1.93,1.16,2.75,3.08,2.75,1.54,0,2.7-.83,3.25-3.42Z"/>
            <path d="M274.82,89.47c0-.88.11-1.82.33-2.86l4.46-20.82c1.16-5.4,4.46-8.48,9.47-8.48,5.73,0,8.59,2.81,8.59,7.44,0,.88-.11,1.93-.33,2.92l-.66,3.19h-5.84l.88-4.19c.11-.44.17-.88.17-1.27,0-1.76-1.16-2.59-2.92-2.59-1.6,0-2.75.99-3.25,3.25l-4.63,21.54c-.11.44-.17.88-.17,1.21,0,1.87,1.21,2.64,2.92,2.64,1.6,0,2.92-.94,3.36-3.14l1.21-6h5.78l-1.27,6.17c-1.16,5.56-4.41,8.48-9.42,8.48-5.78,0-8.7-2.81-8.7-7.49Z"/>
            <path d="M315.86,57.86l-1.93,38.56h-6.17l.55-7.55h-6.83l-2.64,7.55h-5.84l14.49-38.56h8.37ZM308.64,83.63l1.38-18.78-6.67,18.78h5.29Z"/>
            <path d="M325,57.86h8.92c5.07,0,7.77,2.48,7.77,6.89,0,.88-.11,1.82-.33,2.86l-4.13,19.5c-1.32,6.17-4.46,9.31-10.52,9.31h-9.91l8.21-38.56ZM326.88,90.91c1.93,0,3.53-1.21,4.13-3.97l4.3-20.05c.11-.61.17-1.1.17-1.49,0-1.54-.77-2.04-2.31-2.04h-3.14l-5.84,27.54h2.7Z"/>
            <path d="M340.48,89.2c0-.88.11-1.82.33-2.81l4.35-20.38c1.21-5.67,4.63-8.7,9.69-8.7,5.34,0,8.92,2.64,8.92,7.77,0,.88-.11,1.87-.33,2.86l-4.35,20.38c-1.21,5.67-4.57,8.65-9.69,8.65s-8.92-2.64-8.92-7.77ZM352.98,88.04l4.46-21.1c.11-.5.17-.99.17-1.38,0-1.87-1.1-2.75-3.03-2.75-1.6,0-2.75.88-3.3,3.47l-4.46,21.1c-.11.5-.17.94-.17,1.32,0,1.93,1.16,2.75,3.08,2.75,1.54,0,2.7-.83,3.25-3.42Z"/>
            <path d="M361.91,89.8c0-1.05.11-2.15.39-3.42l.28-1.32h5.78l-.44,2.37c-.11.55-.17,1.05-.17,1.49,0,1.98,1.1,2.53,2.86,2.53,2.92,0,3.75-2.7,3.75-5.4,0-2.37-.99-4.57-3.36-7.33-3.08-3.47-4.57-6.89-4.57-10.36,0-6.33,3.75-11.07,10.08-11.07,5.45,0,8.26,2.48,8.26,7.11,0,1.05-.17,2.2-.44,3.47l-.17.72h-5.78l.33-1.65c.11-.61.17-1.16.17-1.65,0-1.87-.99-2.48-2.75-2.48-2.7,0-3.58,2.53-3.58,5.01,0,2.2.99,4.41,3.36,7.16,3.03,3.58,4.57,6.89,4.57,10.58,0,6.55-3.69,11.4-10.25,11.4-5.62,0-8.32-2.42-8.32-7.16Z"/>
          </g>
        </g>
        <text class="cls-5" transform="translate(113.36 120.55)"><tspan class="cls-9" x="0" y="0">r</tspan><tspan class="cls-2" x="8.37" y="0">e</tspan><tspan x="19.93" y="0">cupe</tspan><tspan class="cls-6" x="66.45" y="0">r</tspan><tspan class="cls-3" x="74.69" y="0">ando el m</tspan><tspan class="cls-8" x="166.94" y="0">o</tspan><tspan class="cls-1" x="178.36" y="0">vimien</tspan><tspan class="cls-7" x="242.86" y="0">t</tspan><tspan x="251.23" y="0">o</tspan></text>
      </g>
    </g>
  </g>
</svg>