
<svg xmlns="http://www.w3.org/2000/svg" style="display:none">
  <symbol id="car" viewBox="0 0 24 24"><path fill="currentColor" d="M5 11l1-3a3 3 0 0 1 3-2h6a3 3 0 0 1 3 2l1 3h1a1 1 0 1 1 0 2h-1v4a1 1 0 0 1-1 1h-1a2 2 0 1 1-4 0H9a2 2 0 1 1-4 0H4a1 1 0 0 1-1-1v-4H2a1 1 0 1 1 0-2h3zm3.5 6a1.5 1.5 0 1 0 0-3a1.5 1.5 0 0 0 0 3m11 0a1.5 1.5 0 1 0 0-3a1.5 1.5 0 0 0 0 3M7.7 8l-.5 2h9.6l-.5-2A1 1 0 0 0 15.4 7H8.6a1 1 0 0 0-.9 1"/></symbol>
  <symbol id="bike" viewBox="0 0 24 24"><path fill="currentColor" d="M5 16a3 3 0 1 1 2.83-4H10l-2-3h3V7H8a1 1 0 0 0-.83.45L5.8 9.6A3 3 0 0 0 5 9a5 5 0 1 0 5 5H8a3 3 0 0 1-3 2m9-9h3V6h-4zm5 9a5 5 0 1 0-5-5h2a3 3 0 1 1 3 3a3 3 0 0 1-2.65-1.6L15.6 9H13l2 3a5 5 0 0 0 4 4"/></symbol>
  <symbol id="truck" viewBox="0 0 24 24"><path fill="currentColor" d="M1 6h12v8H9.5A3.5 3.5 0 0 0 6 17.5A3.5 3.5 0 0 0 9.5 21A3.5 3.5 0 0 0 13 17.5V16h3.17l1.66 2.5H21v-7h-3l-2-3H13V4H1zm8.5 13A1.5 1.5 0 1 1 11 17.5A1.5 1.5 0 0 1 9.5 19M19 17a2 2 0 1 0 2 2h-2zm0-6h1v3h-1z"/></symbol>
  <symbol id="boat" viewBox="0 0 24 24"><path fill="currentColor" d="M3 12l9-4l9 4l-2 6H5zM12 3l3 5H9zM4 20q2 1 4 1t4-1t4 0t4 1v2q-2-1-4-1t-4 1t-4 0t-4-1z"/></symbol>
  <symbol id="bus" viewBox="0 0 24 24"><path fill="currentColor" d="M5 16v2a2 2 0 1 0 2 2h10a2 2 0 1 0 2-2v-2Zm0-2h14V7a3 3 0 0 0-3-3H8a3 3 0 0 0-3 3zm2-5h10v2H7z"/></symbol>
  <symbol id="gear" viewBox="0 0 24 24"><path fill="currentColor" d="M12 8a4 4 0 1 1 0 8a4 4 0 0 1 0-8m8.94 4.66l-1.73-.5a6.97 6.97 0 0 0-.4-1l1.08-1.4l-1.41-1.41l-1.4 1.08c-.32-.17-.66-.3-1-.41l-.5-1.73h-2l-.5 1.73c-.34.11-.68.24-1 .41l-1.4-1.08L6.1 8.75l1.08 1.4c-.17.32-.3.66-.41 1l-1.73.5v2l1.73.5c.11.34.24.68.41 1l-1.08 1.4l1.41 1.41l1.4-1.08c.32.17.66.3 1 .41l.5 1.73h2l.5-1.73c.34-.11.68-.24 1-.41l1.4 1.08l1.41-1.41l-1.08-1.4c.17-.32.3-.66.41-1l1.73-.5z"/></symbol>
  <symbol id="plane" viewBox="0 0 24 24"><path fill="currentColor" d="m11 21l-1-7l-7-1l1.5-2.5l5.5 1l2-9l2 9l5.5-1L21 13l-7 1l-1 7z"/></symbol>
  <symbol id="pin" viewBox="0 0 24 24"><path fill="currentColor" d="M12 2a7 7 0 0 0-7 7c0 5.25 7 13 7 13s7-7.75 7-13a7 7 0 0 0-7-7m0 9.5A2.5 2.5 0 1 1 14.5 9A2.5 2.5 0 0 1 12 11.5"/></symbol>
  <symbol id="category" viewBox="0 0 24 24"><path fill="currentColor" d="M3 3h8v8H3zM13 3h8v5h-8zM13 10h8v11h-8zM3 13h8v8H3z"/></symbol>
  <symbol id="rv" viewBox="0 0 24 24"><path fill="currentColor" d="M3 7h12l4 4v5h-2a3 3 0 1 1-6 0H9a3 3 0 1 1-6 0H2V9a2 2 0 0 1 1-2m2 2v3h6V9zm10 0v3h4l-3-3z"/></symbol>
</svg>
